<svg version="1.0" xmlns="http://www.w3.org/2000/svg" width="933.333" height="933.333" viewBox="0 0 700 700"><path d="M323.8.4c-.1.2-3.9.7-8.3 1C287 3.8 255.2 12 221.9 25.5 92.9 77.9 13.3 183.4 1.3 317.6c-1.5 16.6-.6 72.3 1.1 75.3.2.3.7 3.7 1.1 7.6 1.6 16.4 8.3 44.8 15.6 66.7 21 62.2 60.6 117.8 111.4 156.1 5 3.8 9.8 7.5 10.8 8.3.9.8 2 1.4 2.3 1.4.3 0 2.3 1.4 4.4 3 2.1 1.7 4.1 3 4.5 3 .3 0 2.5 1.3 4.8 2.9 8.9 6.1 38.4 20.8 63.7 31.8 9.2 4 40 14.7 45.5 15.7 1.1.3 6.2 1.4 11.3 2.5 5.1 1.2 10.9 2.4 12.9 2.7 1.9.3 4.5.8 5.7 1 1.1.2 4.1.7 6.6 1 2.5.3 5.6.7 7 .9 14.2 2.6 65.3 2.7 80 .1 1.4-.3 4.8-.7 7.5-1.1 2.8-.3 5.7-.8 6.5-1 .8-.2 3.2-.6 5.3-.9 13-2 36.1-8.1 51.7-13.8 40.8-14.8 81.8-39 112.4-66.2 7.5-6.7 24-23.2 28.6-28.6 1.2-1.4 2.9-3.4 3.8-4.5 28.4-33.5 53-75.5 68-116 11.4-30.6 18.5-61.1 20.9-90.1 1-11.1.9-43.6-.1-52.9-4.4-42-14.4-77.2-32.3-114.5-23.7-49.4-59.8-94-105.9-131.1C536.5 61 503.6 41.1 479 30.1 463 22.9 435.7 13 432 13c-.9 0-2-.3-2.4-.7-.3-.4-1.2-.8-1.9-.9-.7-.1-5-1.1-9.7-2.2-4.7-1.2-9.8-2.3-11.5-2.7-1.6-.3-4.1-.8-5.5-1-1.4-.3-3.8-.7-5.5-1-1.6-.3-4.1-.7-5.5-1-1.4-.2-5.2-.7-8.5-1.1-3.3-.3-6.9-.8-8-1.1-2.2-.5-49.1-1.3-49.7-.9z"/></svg>