<?xml version="1.0" standalone="no"?>
<!DOCTYPE svg PUBLIC "-//W3C//DTD SVG 20010904//EN"
 "http://www.w3.org/TR/2001/REC-SVG-20010904/DTD/svg10.dtd">
<svg version="1.0" xmlns="http://www.w3.org/2000/svg"
 width="700.000000pt" height="700.000000pt" viewBox="0 0 700.000000 700.000000"
 preserveAspectRatio="xMidYMid meet">
<metadata>
Created by potrace 1.14, written by Peter Selinger 2001-2017
</metadata>
<g transform="translate(0.000000,700.000000) scale(0.100000,-0.100000)"
fill="#000000" stroke="none">
<path d="M3238 6996 c-1 -2 -39 -7 -83 -10 -285 -24 -603 -106 -936 -241
-1290 -524 -2086 -1579 -2206 -2921 -15 -166 -6 -723 11 -753 2 -3 7 -37 11
-76 16 -164 83 -448 156 -667 210 -622 606 -1178 1114 -1561 50 -38 98 -75
108 -83 9 -8 20 -14 23 -14 3 0 23 -14 44 -30 21 -17 41 -30 45 -30 3 0 25
-13 48 -29 89 -61 384 -208 637 -318 92 -40 400 -147 455 -157 11 -3 62 -14
113 -25 51 -12 109 -24 129 -27 19 -3 45 -8 57 -10 11 -2 41 -7 66 -10 25 -3
56 -7 70 -9 142 -26 653 -27 800 -1 14 3 48 7 75 11 28 3 57 8 65 10 8 2 32 6
53 9 130 20 361 81 517 138 408 148 818 390 1124 662 75 67 240 232 286 286
12 14 29 34 38 45 284 335 530 755 680 1160 114 306 185 611 209 901 10 111 9
436 -1 529 -44 420 -144 772 -323 1145 -237 494 -598 940 -1059 1311 -199 159
-528 358 -774 468 -160 72 -433 171 -470 171 -9 0 -20 3 -24 7 -3 4 -12 8 -19
9 -7 1 -50 11 -97 22 -47 12 -98 23 -115 27 -16 3 -41 8 -55 10 -14 3 -38 7
-55 10 -16 3 -41 7 -55 10 -14 2 -52 7 -85 11 -33 3 -69 8 -80 11 -22 5 -491
13 -497 9z"/>
</g>
</svg>
